<svg aria-hidden="true" style="position: absolute; width: 0; height: 0; overflow: hidden;" version="1.1" xmlns="http://www.w3.org/2000/svg" xmlns:xlink="http://www.w3.org/1999/xlink">
    <defs>
        <symbol id="icon-youtube" viewBox="0 0 45 32">
            <path d="M39.903 0.957c1.927 0.527 3.446 2.079 3.961 4.050 0.936 3.572 0.936 11.025 0.936 11.025s0 7.453-0.936 11.025c-0.515 1.971-2.033 3.458-3.961 3.985-3.494 0.957-17.503 0.957-17.503 0.957s-14.009 0-17.503-0.957c-1.928-0.527-3.446-2.014-3.961-3.985-0.936-3.572-0.936-11.025-0.936-11.025s0-7.453 0.936-11.025c0.515-1.971 2.033-3.523 3.961-4.050 3.494-0.957 17.503-0.957 17.503-0.957s14.009 0 17.503 0.957zM17.818 9.265v13.534l11.709-6.767-11.709-6.767z"></path>
        </symbol>
        <symbol id="icon-facebook" viewBox="0 0 17 32">
            <path d="M13.767 5.313h3.075v-5.088c-0.529-0.069-2.354-0.225-4.478-0.225-4.434 0-7.471 2.65-7.471 7.519v4.481h-4.893v5.688h4.893v14.312h5.997v-14.312h4.695l0.746-5.688h-5.442v-3.919c0-1.644 0.466-2.769 2.877-2.769z"></path>
        </symbol>
        <symbol id="icon-snapchat" viewBox="0 0 34 32">
            <path d="M33.702 25.086c-0.344 0.808-1.797 1.402-4.444 1.816-0.136 0.185-0.249 0.976-0.429 1.593-0.107 0.37-0.371 0.59-0.8 0.59l-0.020-0c-0.62 0-1.267-0.287-2.563-0.287-1.75 0-2.353 0.402-3.711 1.369-1.44 1.026-2.822 1.912-4.884 1.822-2.088 0.155-3.828-1.124-4.807-1.822-1.367-0.974-1.968-1.368-3.71-1.368-1.245 0-2.028 0.314-2.563 0.314-0.533 0-0.74-0.327-0.82-0.601-0.178-0.611-0.291-1.413-0.43-1.604-1.364-0.213-4.441-0.754-4.519-2.137-0.020-0.36 0.233-0.677 0.586-0.736 4.591-0.761 6.658-5.511 6.744-5.713 0.005-0.012 0.010-0.023 0.016-0.034 0.245-0.501 0.3-0.921 0.162-1.247-0.333-0.791-1.773-1.075-2.378-1.316-1.564-0.623-1.782-1.338-1.69-1.829 0.161-0.853 1.433-1.379 2.177-1.027 0.588 0.278 1.111 0.419 1.553 0.419 0.331 0 0.542-0.080 0.657-0.144-0.135-2.389-0.468-5.803 0.375-7.71 2.228-5.034 6.951-5.425 8.344-5.425 0.062 0 0.603-0.006 0.667-0.006 3.44 0 6.746 1.78 8.36 5.428 0.843 1.905 0.511 5.305 0.376 7.712 0.105 0.058 0.287 0.129 0.567 0.142 0.422-0.019 0.911-0.159 1.456-0.416 0.401-0.189 0.95-0.164 1.351 0.004l0.002 0.001c0.625 0.225 1.018 0.679 1.028 1.188 0.012 0.648-0.562 1.208-1.707 1.663-0.14 0.056-0.31 0.11-0.491 0.168-0.646 0.207-1.623 0.519-1.888 1.148-0.137 0.326-0.083 0.745 0.162 1.246 0.006 0.011 0.011 0.023 0.016 0.034 0.086 0.201 2.152 4.95 6.744 5.713 0.424 0.070 0.737 0.524 0.51 1.054z"></path>
        </symbol>
        <symbol id="icon-twitter" viewBox="0 0 40 32">
            <path d="M35.888 7.975c0.025 0.35 0.025 0.7 0.025 1.050 0 10.675-8.249 22.975-23.325 22.975-4.645 0-8.959-1.325-12.589-3.625 0.66 0.075 1.294 0.1 1.98 0.1 3.832 0 7.36-1.275 10.178-3.45-3.604-0.075-6.624-2.4-7.665-5.6 0.508 0.075 1.015 0.125 1.548 0.125 0.736 0 1.472-0.1 2.157-0.275-3.756-0.75-6.574-4-6.574-7.925v-0.1c1.091 0.6 2.36 0.975 3.706 1.025-2.208-1.45-3.655-3.925-3.655-6.725 0-1.5 0.406-2.875 1.117-4.075 4.036 4.9 10.102 8.1 16.904 8.45-0.127-0.6-0.203-1.225-0.203-1.85 0-4.45 3.655-8.075 8.198-8.075 2.36 0 4.492 0.975 5.99 2.55 1.853-0.35 3.629-1.025 5.203-1.95-0.609 1.875-1.904 3.45-3.604 4.45 1.65-0.175 3.249-0.625 4.721-1.25-1.117 1.6-2.513 3.025-4.112 4.175z"></path>
        </symbol>
        <symbol id="icon-insta" viewBox="0 0 32 32">
            <path d="M31.887 9.402c0.15 2.642 0.15 10.554 0 13.196-0.128 2.564-0.714 4.834-2.584 6.705-1.87 1.878-4.14 2.463-6.703 2.585-2.641 0.15-10.558 0.15-13.2 0-2.563-0.128-4.826-0.714-6.703-2.585s-2.463-4.141-2.584-6.705c-0.15-2.642-0.15-10.561 0-13.203 0.129-2.563 0.707-4.834 2.584-6.705s4.148-2.456 6.703-2.578c2.641-0.15 10.558-0.15 13.2 0 2.563 0.129 4.833 0.714 6.703 2.585 1.878 1.871 2.463 4.141 2.584 6.705zM24.542 9.374c1.056 0 1.913-0.85 1.913-1.914 0-1.057-0.857-1.914-1.913-1.914s-1.913 0.857-1.913 1.914c0 1.057 0.85 1.914 1.913 1.914zM16.004 7.796c-4.54 0-8.203 3.663-8.203 8.204s3.662 8.204 8.203 8.204c4.54 0 8.203-3.663 8.203-8.204s-3.662-8.204-8.203-8.204zM16.004 21.334c-2.934 0-5.333-2.392-5.333-5.334s2.392-5.334 5.333-5.334c2.941 0 5.333 2.392 5.333 5.334s-2.399 5.334-5.333 5.334zM25.434 28.474c1.406-0.564 2.484-1.642 3.041-3.042 0.716-1.801 0.677-5.739 0.651-8.293-0.004-0.423-0.008-0.809-0.008-1.14s0.004-0.717 0.008-1.14c0.026-2.552 0.066-6.486-0.651-8.293-0.564-1.407-1.642-2.485-3.041-3.042-1.806-0.713-5.763-0.675-8.315-0.65-0.414 0.004-0.791 0.008-1.116 0.008-0.331 0-0.716-0.004-1.14-0.008-2.551-0.026-6.484-0.066-8.291 0.651-1.406 0.564-2.484 1.642-3.041 3.042-0.713 1.806-0.675 5.764-0.65 8.316 0.004 0.414 0.008 0.791 0.008 1.116 0 0.331-0.004 0.717-0.008 1.14-0.026 2.552-0.066 6.486 0.651 8.293 0.564 1.407 1.642 2.485 3.041 3.042 1.806 0.713 5.763 0.675 8.315 0.65 0.414-0.004 0.791-0.008 1.116-0.008 0.331 0 0.716 0.004 1.14 0.008 2.551 0.026 6.485 0.066 8.291-0.651z"></path>
        </symbol>
        <symbol id="icon-arrow-right" viewBox="0 0 19 32">
            <path d="M0 2.074l14.384 13.926-14.384 13.926 2.141 2.074 16.526-16-16.526-16-2.141 2.074z"></path>
        </symbol>
        <symbol id="icon-site-logo" viewBox="0 0 158 32">
            <path  d="M7.82 30.496l1.911-5.604h11.512l1.911 5.604h7.906l-11.252-30.496h-8.558l-11.251 30.496h7.82zM19.332 19.245h-7.689l3.866-11.295 3.823 11.295zM48.546 29.497c1.376-0.84 2.411-1.969 3.106-3.389v4.388h7.472v-24.241h-7.472v12.859c0 1.767-0.434 3.128-1.303 4.084s-2.056 1.434-3.562 1.434c-1.448 0-2.599-0.456-3.454-1.369s-1.282-2.194-1.282-3.845v-13.163h-7.385v14.075c0 3.244 0.818 5.792 2.454 7.646s3.845 2.78 6.625 2.78c1.825 0 3.425-0.42 4.8-1.26zM72.765 30.496h-7.429v-24.241h7.429v4.561c0.927-1.477 2.121-2.65 3.584-3.519s3.048-1.303 4.757-1.303v7.95h-2.129c-1.969 0-3.497 0.42-4.583 1.26s-1.629 2.259-1.629 4.257v11.034zM103.109 29.302c1.897-0.999 3.388-2.44 4.475-4.323s1.629-4.084 1.629-6.603-0.543-4.721-1.629-6.603c-1.086-1.882-2.578-3.323-4.475-4.322s-4.047-1.499-6.451-1.499c-2.404 0-4.561 0.5-6.473 1.499s-3.41 2.44-4.496 4.322c-1.086 1.882-1.629 4.084-1.629 6.603s0.543 4.721 1.629 6.603c1.086 1.883 2.585 3.323 4.496 4.323s4.069 1.499 6.473 1.499c2.404 0 4.554-0.5 6.451-1.499zM96.658 24.327c-1.419 0-2.614-0.507-3.584-1.52s-1.455-2.491-1.455-4.431c0-1.94 0.485-3.425 1.455-4.453s2.165-1.542 3.584-1.542c1.419 0 2.606 0.514 3.562 1.542s1.434 2.512 1.434 4.453c0 1.94-0.478 3.417-1.434 4.431s-2.143 1.52-3.562 1.52zM123.223 15.205c1.086-0.84 2.614-1.26 4.583-1.26h2.129v-7.95c-1.709 0-3.294 0.434-4.757 1.303s-2.657 2.042-3.584 3.519v-4.561h-7.429v24.241h7.429v-11.034c0-1.998 0.543-3.417 1.629-4.257zM143.358 30.8c-1.998 0-3.787-0.5-5.365-1.499s-2.824-2.44-3.736-4.323c-0.912-1.882-1.369-4.084-1.369-6.603 0-2.549 0.456-4.757 1.369-6.625s2.158-3.302 3.736-4.301 3.367-1.499 5.365-1.499c1.854 0 3.446 0.42 4.779 1.26s2.317 1.984 2.954 3.432v-4.388h7.385v24.241h-7.385v-4.388c-0.637 1.448-1.622 2.592-2.954 3.432s-2.925 1.26-4.779 1.26zM141.903 22.72c0.97 1.043 2.252 1.564 3.845 1.564 1.564 0 2.846-0.536 3.845-1.607s1.499-2.505 1.499-4.301c0-1.825-0.5-3.265-1.499-4.322s-2.281-1.586-3.845-1.586c-1.593 0-2.874 0.521-3.845 1.564s-1.455 2.491-1.455 4.344c0 1.854 0.485 3.302 1.455 4.344z"></path>
        </symbol>
        <symbol id="icon-basket" viewBox="0 0 21 32">
            <path  d="M10.667 0c-1.454 0.001-2.848 0.59-3.878 1.636-1.029 1.047-1.607 2.467-1.61 3.949v2.72h-4.465c-0.395 0-0.714 0.325-0.714 0.727v18.604c0 2.41 1.918 4.364 4.282 4.364h12.769c2.364 0 4.282-1.953 4.282-4.364v-18.604c0-0.193-0.075-0.378-0.209-0.514s-0.315-0.213-0.505-0.213h-4.465v-2.72c-0.003-1.482-0.581-2.902-1.61-3.949-1.030-1.047-2.424-1.635-3.878-1.636h0zM6.606 5.585c0-2.286 1.818-4.138 4.061-4.138s4.061 1.852 4.061 4.138v2.72h-8.121v-2.72zM19.906 9.76v17.876c0 0.771-0.301 1.511-0.836 2.057s-1.262 0.852-2.018 0.852h-12.769c-1.577 0-2.855-1.303-2.855-2.909v-17.876h3.751v3.935c0 0.402 0.319 0.727 0.714 0.727 0.393 0 0.714-0.325 0.714-0.727v-3.935h8.121v3.935c0 0.402 0.321 0.727 0.714 0.727 0.395 0 0.714-0.325 0.714-0.727v-3.935h3.751z"></path>
        </symbol>
        <symbol id="icon-search" viewBox="0 0 30 32">
            <path  d="M3.899 3.905c2.518-2.518 5.866-3.905 9.427-3.905s6.909 1.387 9.427 3.905c4.877 4.876 5.179 12.622 0.905 17.853l6.263 6.263c0.526 0.526 0.526 1.379 0 1.906-0.263 0.263-0.608 0.395-0.953 0.395s-0.69-0.132-0.953-0.395l-6.263-6.263c-2.373 1.942-5.318 2.999-8.427 2.999-3.561 0-6.909-1.387-9.427-3.905-5.198-5.197-5.198-13.655 0-18.854l0 0zM5.805 20.853c2.010 2.010 4.68 3.115 7.521 3.115s5.511-1.107 7.521-3.115c4.147-4.147 4.147-10.896 0-15.042-2.010-2.008-4.68-3.115-7.521-3.115s-5.511 1.107-7.521 3.115c-4.147 4.148-4.147 10.896 0 15.042z"></path>
        </symbol>
        <symbol id="icon-close" viewBox="0 0 32 32">
            <path d="M0.375 31.625c0.5 0.5 1.31 0.5 1.81 0l13.815-13.815 13.815 13.815c0.5 0.5 1.31 0.5 1.81 0s0.5-1.31 0-1.81l-13.815-13.815 13.815-13.815c0.5-0.5 0.5-1.31 0-1.81s-1.31-0.5-1.81 0l-13.815 13.815-13.815-13.815c-0.5-0.5-1.31-0.5-1.81 0s-0.5 1.31 0 1.81l13.815 13.815-13.815 13.815c-0.5 0.5-0.5 1.31 0 1.81z"></path>
        </symbol>
        <symbol id="icon-menu-burger" viewBox="0 0 43 32">
            <path  d="M0 0h42.667v6.4h-42.667v-6.4zM0 12.8h42.667v6.4h-42.667v-6.4zM42.667 25.6h-42.667v6.4h42.667v-6.4z"></path>
        </symbol>
    </defs>
</svg>